<svg width="171" height="25" viewBox="0 0 171 25" fill="none" xmlns="http://www.w3.org/2000/svg">
<path d="M12.128 24.48C9.824 24.48 7.83467 23.9787 6.16 22.976C4.496 21.9733 3.21067 20.5707 2.304 18.768C1.408 16.9653 0.96 14.8693 0.96 12.48C0.96 10.0907 1.408 7.99467 2.304 6.192C3.21067 4.38933 4.496 2.98667 6.16 1.984C7.83467 0.981333 9.824 0.48 12.128 0.48C14.7733 0.48 16.992 1.136 18.784 2.448C20.5867 3.76 21.856 5.536 22.592 7.776L18.208 8.992C17.7813 7.59467 17.0613 6.512 16.048 5.744C15.0347 4.96533 13.728 4.576 12.128 4.576C10.6667 4.576 9.44533 4.90133 8.464 5.552C7.49333 6.20267 6.76267 7.12 6.272 8.304C5.78133 9.488 5.536 10.88 5.536 12.48C5.536 14.08 5.78133 15.472 6.272 16.656C6.76267 17.84 7.49333 18.7573 8.464 19.408C9.44533 20.0587 10.6667 20.384 12.128 20.384C13.728 20.384 15.0347 19.9947 16.048 19.216C17.0613 18.4373 17.7813 17.3547 18.208 15.968L22.592 17.184C21.856 19.424 20.5867 21.2 18.784 22.512C16.992 23.824 14.7733 24.48 12.128 24.48ZM30.915 24.48C29.6777 24.48 28.627 24.2453 27.763 23.776C26.9097 23.296 26.259 22.6613 25.811 21.872C25.3737 21.072 25.155 20.192 25.155 19.232C25.155 18.432 25.2777 17.7013 25.523 17.04C25.7683 16.3787 26.163 15.7973 26.707 15.296C27.2617 14.784 28.003 14.3573 28.931 14.016C29.571 13.7813 30.3337 13.5733 31.219 13.392C32.1043 13.2107 33.107 13.04 34.227 12.88C35.347 12.7093 36.579 12.5227 37.923 12.32L36.355 13.184C36.355 12.16 36.1097 11.408 35.619 10.928C35.1283 10.448 34.307 10.208 33.155 10.208C32.515 10.208 31.8483 10.3627 31.155 10.672C30.4617 10.9813 29.9763 11.5307 29.699 12.32L25.763 11.072C26.2003 9.64267 27.0217 8.48 28.227 7.584C29.4323 6.688 31.075 6.24 33.155 6.24C34.6803 6.24 36.035 6.47467 37.219 6.944C38.403 7.41333 39.299 8.224 39.907 9.376C40.2483 10.016 40.451 10.656 40.515 11.296C40.579 11.936 40.611 12.6507 40.611 13.44V24H36.803V20.448L37.347 21.184C36.5043 22.3467 35.5923 23.1893 34.611 23.712C33.6403 24.224 32.4083 24.48 30.915 24.48ZM31.843 21.056C32.643 21.056 33.315 20.9173 33.859 20.64C34.4137 20.352 34.851 20.0267 35.171 19.664C35.5017 19.3013 35.7257 18.9973 35.843 18.752C36.067 18.2827 36.195 17.7387 36.227 17.12C36.2697 16.4907 36.291 15.968 36.291 15.552L37.571 15.872C36.2803 16.0853 35.235 16.2667 34.435 16.416C33.635 16.5547 32.9897 16.6827 32.499 16.8C32.0083 16.9173 31.5763 17.0453 31.203 17.184C30.7763 17.3547 30.4297 17.5413 30.163 17.744C29.907 17.936 29.715 18.1493 29.587 18.384C29.4697 18.6187 29.411 18.88 29.411 19.168C29.411 19.5627 29.507 19.904 29.699 20.192C29.9017 20.4693 30.1843 20.6827 30.547 20.832C30.9097 20.9813 31.3417 21.056 31.843 21.056ZM44.7713 24V6.72H48.6113V10.944L48.1953 10.4C48.4193 9.80267 48.7179 9.25867 49.0913 8.768C49.4646 8.27733 49.9233 7.872 50.4673 7.552C50.8833 7.296 51.3366 7.09867 51.8273 6.96C52.3179 6.81067 52.8246 6.72 53.3473 6.688C53.8699 6.64533 54.3926 6.656 54.9153 6.72V10.784C54.4353 10.6347 53.8753 10.5867 53.2353 10.64C52.6059 10.6827 52.0353 10.8267 51.5233 11.072C51.0113 11.3067 50.5793 11.6213 50.2273 12.016C49.8753 12.4 49.6086 12.8587 49.4273 13.392C49.2459 13.9147 49.1553 14.5067 49.1553 15.168V24H44.7713ZM65.6783 24.48C63.9076 24.48 62.3449 24.1013 60.9903 23.344C59.6463 22.576 58.5903 21.5253 57.8223 20.192C57.0649 18.848 56.6863 17.312 56.6863 15.584C56.6863 13.696 57.0596 12.0533 57.8063 10.656C58.5529 9.25867 59.5823 8.176 60.8943 7.408C62.2063 6.62933 63.7156 6.24 65.4223 6.24C67.2356 6.24 68.7769 6.66667 70.0463 7.52C71.3156 8.37333 72.2543 9.57333 72.8623 11.12C73.4703 12.6667 73.6836 14.4853 73.5023 16.576H69.1983V14.976C69.1983 13.216 68.9156 11.952 68.3503 11.184C67.7956 10.4053 66.8836 10.016 65.6143 10.016C64.1316 10.016 63.0383 10.4693 62.3343 11.376C61.6409 12.272 61.2943 13.6 61.2943 15.36C61.2943 16.9707 61.6409 18.2187 62.3343 19.104C63.0383 19.9787 64.0676 20.416 65.4223 20.416C66.2756 20.416 67.0063 20.2293 67.6143 19.856C68.2223 19.4827 68.6863 18.944 69.0063 18.24L73.3583 19.488C72.7076 21.0667 71.6783 22.2933 70.2703 23.168C68.8729 24.0427 67.3423 24.48 65.6783 24.48ZM59.9503 16.576V13.344H71.4062V16.576H59.9503ZM85.147 24.48C83.3763 24.48 81.8137 24.1013 80.459 23.344C79.115 22.576 78.059 21.5253 77.291 20.192C76.5337 18.848 76.155 17.312 76.155 15.584C76.155 13.696 76.5283 12.0533 77.275 10.656C78.0217 9.25867 79.051 8.176 80.363 7.408C81.675 6.62933 83.1843 6.24 84.891 6.24C86.7043 6.24 88.2457 6.66667 89.515 7.52C90.7843 8.37333 91.723 9.57333 92.331 11.12C92.939 12.6667 93.1523 14.4853 92.971 16.576H88.667V14.976C88.667 13.216 88.3843 11.952 87.819 11.184C87.2643 10.4053 86.3523 10.016 85.083 10.016C83.6003 10.016 82.507 10.4693 81.803 11.376C81.1097 12.272 80.763 13.6 80.763 15.36C80.763 16.9707 81.1097 18.2187 81.803 19.104C82.507 19.9787 83.5363 20.416 84.891 20.416C85.7443 20.416 86.475 20.2293 87.083 19.856C87.691 19.4827 88.155 18.944 88.475 18.24L92.827 19.488C92.1763 21.0667 91.147 22.2933 89.739 23.168C88.3417 24.0427 86.811 24.48 85.147 24.48ZM79.419 16.576V13.344H90.875V16.576H79.419ZM96.5838 24V6.72H100.424V10.944L100.008 10.4C100.232 9.80267 100.53 9.25867 100.904 8.768C101.277 8.27733 101.736 7.872 102.28 7.552C102.696 7.296 103.149 7.09867 103.64 6.96C104.13 6.81067 104.637 6.72 105.16 6.688C105.682 6.64533 106.205 6.656 106.728 6.72V10.784C106.248 10.6347 105.688 10.5867 105.048 10.64C104.418 10.6827 103.848 10.8267 103.336 11.072C102.824 11.3067 102.392 11.6213 102.04 12.016C101.688 12.4 101.421 12.8587 101.24 13.392C101.058 13.9147 100.968 14.5067 100.968 15.168V24H96.5838ZM109.771 24V0.959999H114.123V10.432H124.427V0.959999H128.779V24H124.427V14.496H114.123V24H109.771ZM139.703 24.512C138.349 24.512 137.245 24.2827 136.391 23.824C135.538 23.3653 134.871 22.784 134.391 22.08C133.922 21.376 133.586 20.6453 133.383 19.888C133.181 19.12 133.058 18.4213 133.015 17.792C132.973 17.1627 132.951 16.704 132.951 16.416V6.72H137.367V14.88C137.367 15.2747 137.389 15.7813 137.431 16.4C137.474 17.008 137.607 17.6213 137.831 18.24C138.055 18.8587 138.418 19.376 138.919 19.792C139.431 20.208 140.151 20.416 141.079 20.416C141.453 20.416 141.853 20.3573 142.279 20.24C142.706 20.1227 143.106 19.8987 143.479 19.568C143.853 19.2267 144.157 18.7307 144.391 18.08C144.637 17.4187 144.759 16.5547 144.759 15.488L147.255 16.672C147.255 18.0373 146.978 19.3173 146.423 20.512C145.869 21.7067 145.031 22.672 143.911 23.408C142.802 24.144 141.399 24.512 139.703 24.512ZM145.303 24V18.272H144.759V6.72H149.143V24H145.303ZM162.095 24.48C160.378 24.48 158.943 24.08 157.791 23.28C156.639 22.48 155.77 21.392 155.183 20.016C154.607 18.64 154.319 17.088 154.319 15.36C154.319 13.632 154.607 12.08 155.183 10.704C155.759 9.328 156.607 8.24 157.727 7.44C158.847 6.64 160.228 6.24 161.871 6.24C163.524 6.24 164.964 6.63467 166.191 7.424C167.418 8.21333 168.367 9.296 169.039 10.672C169.722 12.0373 170.063 13.6 170.063 15.36C170.063 17.088 169.727 18.64 169.055 20.016C168.394 21.392 167.466 22.48 166.271 23.28C165.076 24.08 163.684 24.48 162.095 24.48ZM153.583 24V0.959999H157.967V12.16H157.423V24H153.583ZM161.391 20.608C162.33 20.608 163.098 20.3733 163.695 19.904C164.292 19.4347 164.735 18.8053 165.023 18.016C165.311 17.216 165.455 16.3307 165.455 15.36C165.455 14.4 165.306 13.5253 165.007 12.736C164.708 11.936 164.244 11.3013 163.615 10.832C162.996 10.352 162.202 10.112 161.231 10.112C160.324 10.112 159.588 10.3307 159.023 10.768C158.468 11.2053 158.063 11.8187 157.807 12.608C157.551 13.3973 157.423 14.3147 157.423 15.36C157.423 16.4053 157.551 17.3227 157.807 18.112C158.063 18.9013 158.479 19.5147 159.055 19.952C159.642 20.3893 160.42 20.608 161.391 20.608Z" fill="white"/>
</svg>
